      <svg
        xmlns="http://www.w3.org/2000/svg"
        viewBox="0 0 80 40"
      >
        <g
          id="SvgjsG1372"
          featurekey="inlineSymbolFeature-0"
          transform="matrix(0.839634068220737,0,0,0.839634068220737,0,-14.441706613986634)"
          fill="#4578ad"
        >
          <g xmlns="http://www.w3.org/2000/svg">
            <path d="M85.9,41.8c1.4-1.9,2.2-4.3,2.2-6.8c0-6.5-5.3-11.9-11.9-11.9c-2.6,0-4.9,0.8-6.9,2.2c-2.5-4.8-7.5-8.1-13.3-8.1   c-8,0-14.5,6.2-15,14.1c0,0,0,0,0,0c-10.1,0-18.3,8.2-18.3,18.3S30.8,68,41,68c4.8,0,9.2-1.9,12.5-4.9c2.7,3,6.7,4.9,11.1,4.9   c3.9,0,7.5-1.5,10.2-4c2.4,2.5,5.7,4,9.4,4c7.3,0,13.2-5.9,13.2-13.2C97.3,48.2,92.3,42.7,85.9,41.8z"></path>
            <g>
              <path d="M30,72.6l1-1.7C23,67.3,17.4,59.3,17.4,50c0-4.3,1.2-8.3,3.3-11.8L19,37.2c-2.3,3.8-3.6,8.2-3.6,12.8    C15.4,60,21.4,68.7,30,72.6z"></path>
              <path d="M27.4,77.2l1-1.7c-9.8-4.4-16.7-14.2-16.7-25.7c0-5.2,1.4-10.1,4-14.4l-1.8-0.9c-2.7,4.5-4.2,9.8-4.2,15.3    C9.7,62,16.9,72.5,27.4,77.2z"></path>
              <path d="M4.7,49.5c0-6.3,1.7-12.2,4.7-17.4l-1.8-0.9c-3.2,5.5-5,11.8-5,18.4c0,14.8,8.8,27.5,21.5,33.2l1-1.7    C13.1,75.6,4.7,63.6,4.7,49.5z"></path>
            </g>
          </g>
        </g>
      </svg>